# xmcd
#
# Track frame offsets:
#	150
#	21465
#	35020
#	49627
#	65126
#	78290
#	91284
#	107166
#	119036
#	134471
#	156305
#	180489
#	195381
#	208651
#	228323
#	249090
#	267747
#	283532
#
# Disc length: 3916 seconds
#
# Revision: 2
# Processed by: cddbd v1.5.1PL2 Copyright (c) Steve Scherf et al.
# Submitted via: audiograbber 1.83.01
#
DISCID=070f4a12
DTITLE=Ella Fitzgerald and Louis Armstrong - Ella and Louis [CD-2)
DYEAR=1900
DGENRE=Jazz
TTITLE0=Louis Armstrong - Jeepers Creepers
TTITLE1=Louis Armstrong - A kiss to build a dream on
TTITLE2=Louis Armstrong - When the saints go marchin' in
TTITLE3=Louis Armstrong - Mack the Knife
TTITLE4=Louis Armstrong - C'est si bon
TTITLE5=Louis Armstrong - St. Louis Blues
TTITLE6=Louis Armstrong - Black and blue
TTITLE7=Louis Armstrong - Dipper mouth blues
TTITLE8=Louis Armstrong - Bye and bye
TTITLE9=Louis Armstrong - Rockin' chair
TTITLE10=Louis Armstrong - C. jam blues
TTITLE11=Louis Armstrong - Stardust
TTITLE12=Louis Armstrong - Royal Garden Blues
TTITLE13=Louis Armstrong - Indiana
TTITLE14=Louis Armstrong - I used to love you
TTITLE15=Louis Armstrong - Where did you stay last night
TTITLE16=Louis Armstrong - I it could be with you
TTITLE17=Louis Armstrong - Way down yonder in New Orleans
EXTD=
EXTT0=
EXTT1=
EXTT2=
EXTT3=
EXTT4=
EXTT5=
EXTT6=
EXTT7=
EXTT8=
EXTT9=
EXTT10=
EXTT11=
EXTT12=
EXTT13=
EXTT14=
EXTT15=
EXTT16=
EXTT17=
PLAYORDER=
